<svg id="Layer_1" data-name="Layer 1" xmlns="http://www.w3.org/2000/svg" viewBox="0 0 122.88 122.88"><defs><style>.cls-1{fill:#f06d8f;}</style></defs><title>pink-phone</title><path class="cls-1" d="M61.44,0A61.44,61.44,0,1,1,18,18,61.29,61.29,0,0,1,61.44,0ZM48.8,56.45a46.53,46.53,0,0,0,6.91,9.68,39.23,39.23,0,0,0,10.94,8.08,1.16,1.16,0,0,0,.94.05,3.94,3.94,0,0,0,1.32-1,14.75,14.75,0,0,0,1.2-1.47c1.75-2.31,3.94-5.18,7-3.75l.18.1,10.26,5.9.1.06a4.65,4.65,0,0,1,1.93,4,10.84,10.84,0,0,1-1.5,5.09,10.41,10.41,0,0,1-4.93,4.35,22.41,22.41,0,0,1-6.08,1.66,20.56,20.56,0,0,1-9.29-.78,40.47,40.47,0,0,1-9.34-4.51l-.24-.15c-1.52-.94-3.16-2-4.77-3.16A59.67,59.67,0,0,1,37.65,62.71c-3.28-5.93-5.07-12.33-4.09-18.44A13.19,13.19,0,0,1,38,35.88,12,12,0,0,1,47,33.5a1.28,1.28,0,0,1,1,.66l6.57,11.11A3.49,3.49,0,0,1,55.12,49,7.28,7.28,0,0,1,52.6,51.8c-.35.31-.77.61-1.21.93-1.47,1.07-3.14,2.3-2.57,3.75l0,0ZM98.94,23.94a53,53,0,1,0,15.54,37.5,52.86,52.86,0,0,0-15.54-37.5Z"/></svg>